<svg width="350" height="328" viewBox="0 0 350 328" fill="none" xmlns="http://www.w3.org/2000/svg">
<rect width="350" height="328" rx="94" fill="#111827"/>
<path d="M109.472 231C88.5062 231 72.6543 225.318 61.9159 213.954C51.3053 202.464 46 185.98 46 164.5C46 143.02 51.3053 126.598 61.9159 115.234C72.6543 103.745 88.5062 98 109.472 98C130.309 98 146.097 103.745 156.836 115.234C167.574 126.723 172.943 143.145 172.943 164.5C172.943 185.855 167.574 202.277 156.836 213.766C146.097 225.255 130.309 231 109.472 231ZM131.14 121.415C125.643 117.669 118.42 115.796 109.472 115.796C96.1765 115.796 86.2691 119.854 79.7493 127.972C73.3574 136.089 70.1614 148.265 70.1614 164.5C70.1614 177.363 72.846 187.291 78.2153 194.285L131.14 121.415ZM109.472 213.392C122.767 213.392 132.61 209.333 139.002 201.215C145.394 193.098 148.59 180.86 148.59 164.5C148.59 151.887 146.033 142.021 140.92 134.903L87.8031 208.146C93.5559 211.643 100.779 213.392 109.472 213.392Z" fill="white"/>
<path d="M198.876 228.19C196.319 228.19 194.465 227.628 193.315 226.504C192.292 225.38 191.781 223.694 191.781 221.446V107.741C191.781 105.368 192.292 103.62 193.315 102.496C194.465 101.372 196.383 100.81 199.067 100.81H207.888C209.678 100.81 211.084 101.06 212.107 101.559C213.13 102.059 214.152 103.058 215.175 104.556L278.455 190.351V107.741C278.455 105.368 278.966 103.62 279.989 102.496C281.14 101.372 282.993 100.81 285.55 100.81H295.713C298.27 100.81 300.124 101.372 301.274 102.496C302.425 103.62 303 105.368 303 107.741V221.446C303 223.694 302.425 225.38 301.274 226.504C300.251 227.628 298.398 228.19 295.713 228.19H286.701C284.911 228.19 283.569 228.003 282.674 227.628C281.779 227.129 280.756 226.13 279.606 224.631L216.326 139.024V221.446C216.326 223.694 215.75 225.38 214.6 226.504C213.577 227.628 211.723 228.19 209.039 228.19H198.876Z" fill="white"/>
</svg>
